Normalized EMG Linear Envelopes
nRows=27
nColumns=17

endheader
time	        VM	        VL	        RF	       GRA	        TA	   ADDLONG	   SEMIMEM	      BFLH	        GM	        GL	       TFL	   GLUTMAX	   GLUTMED	      PIRI	    OBTINT	        QF	
1.78	  0.056708	  0.005803	  0.006165	  0.148876	  0.085729	  0.049026	  0.487348	  0.449341	  0.234616	  0.119278	  0.042317	  0.303528	  0.299526	  0.536168	  0.606665	  0.366973	
1.7805	  0.056205	  0.005495	  0.005947	  0.149100	  0.086708	  0.048815	  0.489479	  0.452541	  0.236171	  0.119825	  0.042534	  0.303514	  0.299528	  0.532005	  0.605742	  0.367401	
1.781	  0.055706	  0.005192	  0.005739	  0.149322	  0.087704	  0.048608	  0.491583	  0.455688	  0.237712	  0.120352	  0.042744	  0.303462	  0.299487	  0.527756	  0.604962	  0.367825	
1.7815	  0.055210	  0.004892	  0.005543	  0.149540	  0.088717	  0.048404	  0.493660	  0.458782	  0.239238	  0.120862	  0.042948	  0.303373	  0.299404	  0.523424	  0.604326	  0.368244	
1.782	  0.054719	  0.004597	  0.005356	  0.149756	  0.089748	  0.048204	  0.495710	  0.461821	  0.240748	  0.121352	  0.043144	  0.303248	  0.299279	  0.519014	  0.603834	  0.368658	
1.7825	  0.054233	  0.004306	  0.005180	  0.149968	  0.090796	  0.048006	  0.497733	  0.464802	  0.242244	  0.121824	  0.043333	  0.303090	  0.299110	  0.514529	  0.603487	  0.369069	
1.783	  0.053753	  0.004020	  0.005014	  0.150176	  0.091862	  0.047811	  0.499729	  0.467725	  0.243724	  0.122276	  0.043514	  0.302899	  0.298898	  0.509974	  0.603285	  0.369477	
1.7835	  0.053279	  0.003739	  0.004857	  0.150380	  0.092946	  0.047617	  0.501698	  0.470587	  0.245188	  0.122709	  0.043687	  0.302677	  0.298643	  0.505352	  0.603230	  0.369881	
1.784	  0.052811	  0.003462	  0.004710	  0.150580	  0.094047	  0.047426	  0.503640	  0.473388	  0.246638	  0.123123	  0.043852	  0.302426	  0.298344	  0.500667	  0.603321	  0.370283	
1.7845	  0.052351	  0.003191	  0.004572	  0.150774	  0.095167	  0.047236	  0.505555	  0.476125	  0.248073	  0.123516	  0.044009	  0.302148	  0.298003	  0.495924	  0.603558	  0.370682	
1.785	  0.051899	  0.002926	  0.004442	  0.150963	  0.096304	  0.047048	  0.507444	  0.478799	  0.249492	  0.123890	  0.044157	  0.301842	  0.297618	  0.491126	  0.603942	  0.371078	
1.7855	  0.051455	  0.002666	  0.004321	  0.151146	  0.097458	  0.046860	  0.509306	  0.481409	  0.250897	  0.124244	  0.044295	  0.301511	  0.297190	  0.486276	  0.604473	  0.371473	
1.786	  0.051021	  0.002411	  0.004209	  0.151324	  0.098631	  0.046673	  0.511143	  0.483953	  0.252288	  0.124577	  0.044425	  0.301156	  0.296719	  0.481379	  0.605150	  0.371867	
1.7865	  0.050595	  0.002163	  0.004105	  0.151496	  0.099821	  0.046486	  0.512953	  0.486433	  0.253665	  0.124890	  0.044545	  0.300778	  0.296205	  0.476438	  0.605973	  0.372260	
1.787	  0.050180	  0.001921	  0.004008	  0.151662	  0.101029	  0.046300	  0.514738	  0.488846	  0.255028	  0.125182	  0.044656	  0.300378	  0.295648	  0.471457	  0.606940	  0.372653	
1.7875	  0.049775	  0.001685	  0.003919	  0.151821	  0.102254	  0.046114	  0.516498	  0.491195	  0.256378	  0.125454	  0.044757	  0.299957	  0.295049	  0.466441	  0.608053	  0.373047	
1.788	  0.049381	  0.001456	  0.003838	  0.151973	  0.103497	  0.045928	  0.518233	  0.493478	  0.257714	  0.125704	  0.044849	  0.299515	  0.294408	  0.461392	  0.609309	  0.373442	
1.7885	  0.048999	  0.001233	  0.003764	  0.152118	  0.104758	  0.045742	  0.519944	  0.495697	  0.259038	  0.125934	  0.044931	  0.299054	  0.293725	  0.456315	  0.610708	  0.373840	
1.789	  0.048628	  0.001018	  0.003697	  0.152257	  0.106035	  0.045555	  0.521631	  0.497852	  0.260349	  0.126143	  0.045004	  0.298575	  0.293002	  0.451213	  0.612248	  0.374241	
1.7895	  0.048270	  0.000810	  0.003636	  0.152387	  0.107330	  0.045368	  0.523294	  0.499944	  0.261648	  0.126332	  0.045066	  0.298077	  0.292240	  0.446090	  0.613929	  0.374647	
1.79	  0.047924	  0.000609	  0.003582	  0.152510	  0.108641	  0.045181	  0.524933	  0.501972	  0.262935	  0.126499	  0.045120	  0.297563	  0.291439	  0.440950	  0.615749	  0.375057	
1.7905	  0.047591	  0.000415	  0.003534	  0.152625	  0.109970	  0.044992	  0.526549	  0.503937	  0.264210	  0.126646	  0.045164	  0.297032	  0.290601	  0.435796	  0.617706	  0.375473	
1.791	  0.047272	  0.000230	  0.003492	  0.152732	  0.111314	  0.044802	  0.528142	  0.505840	  0.265474	  0.126773	  0.045198	  0.296485	  0.289727	  0.430632	  0.619798	  0.375895	
1.7915	  0.046966	  0.000053	  0.003456	  0.152831	  0.112675	  0.044612	  0.529711	  0.507681	  0.266728	  0.126879	  0.045224	  0.295924	  0.288817	  0.425460	  0.622025	  0.376324	
1.792	  0.046675	  0.000000	  0.003425	  0.152921	  0.114051	  0.044420	  0.531258	  0.509460	  0.267971	  0.126964	  0.045240	  0.295349	  0.287874	  0.420285	  0.624384	  0.376761	
1.7925	  0.046398	  0.000000	  0.003401	  0.153004	  0.115443	  0.044226	  0.532782	  0.511180	  0.269205	  0.127029	  0.045247	  0.294760	  0.286898	  0.415111	  0.626874	  0.377206	
1.793	  0.046136	  0.000000	  0.003381	  0.153077	  0.116850	  0.044032	  0.534284	  0.512842	  0.270431	  0.127074	  0.045246	  0.294159	  0.285889	  0.409940	  0.629491	  0.377659	
